<svg width="24" height="24" viewBox="0 0 24 24" fill="none" xmlns="http://www.w3.org/2000/svg">
<path fill-rule="evenodd" clip-rule="evenodd" d="M7.75736 13.7574C8.88258 12.6321 10.4087 12 12 12C13.5913 12 15.1174 12.6321 16.2426 13.7574C17.3679 14.8826 18 16.4087 18 18C18 18.5523 17.5523 19 17 19C16.4477 19 16 18.5523 16 18C16 16.9391 15.5786 15.9217 14.8284 15.1716C14.0783 14.4214 13.0609 14 12 14C10.9391 14 9.92172 14.4214 9.17157 15.1716C8.42143 15.9217 8 16.9391 8 18C8 18.5523 7.55228 19 7 19C6.44772 19 6 18.5523 6 18C6 16.4087 6.63214 14.8826 7.75736 13.7574Z" fill="white"/>
<path fill-rule="evenodd" clip-rule="evenodd" d="M12 1C12.5523 1 13 1.44772 13 2V9C13 9.55228 12.5523 10 12 10C11.4477 10 11 9.55228 11 9V2C11 1.44772 11.4477 1 12 1Z" fill="white"/>
<path fill-rule="evenodd" clip-rule="evenodd" d="M0 22C0 21.4477 0.447715 21 1 21H23C23.5523 21 24 21.4477 24 22C24 22.5523 23.5523 23 23 23H1C0.447715 23 0 22.5523 0 22Z" fill="white"/>
<path fill-rule="evenodd" clip-rule="evenodd" d="M7.29289 4.29289C7.68342 3.90237 8.31658 3.90237 8.70711 4.29289L12 7.58579L15.2929 4.29289C15.6834 3.90237 16.3166 3.90237 16.7071 4.29289C17.0976 4.68342 17.0976 5.31658 16.7071 5.70711L12.7071 9.70711C12.3166 10.0976 11.6834 10.0976 11.2929 9.70711L7.29289 5.70711C6.90237 5.31658 6.90237 4.68342 7.29289 4.29289Z" fill="white"/>
</svg>
